<svg xmlns="http://www.w3.org/2000/svg" xmlns:xlink="http://www.w3.org/1999/xlink" width="239" height="50" viewBox="0 0 239 50" fill="none">
  <defs fill="#ffffff">
    <style>
      .cls-1 {
        fill: #ffffff;
      }
    </style>
  </defs>
  <path class="cls-1" d="M17.09,13.93H6.81v4.06c.62-.35,1.62-.82,3.02-1.39,.57-.16,1.27-.23,2.08-.23,1.12,0,2.11,.31,2.99,.92,.98,.68,1.47,1.56,1.47,2.63,0,1.45-.83,2.51-2.49,3.16-.69,.27-1.28,.41-1.78,.41l3.62,4.43-1.98,1.44-5.59-6.64,1.03-2.15c.55,.16,1.13,.24,1.74,.24,.89,0,1.61-.21,2.18-.63,.64-.46,.96-1.12,.96-1.97s-.59-1.25-1.78-1.25c-.83,0-1.72,.4-2.65,1.21-.67,.58-1.27,1.27-1.83,2.09-.67,.98-1,1.83-1,2.53v6.58l-2.73-1.21V13.93h-1.99v-1.88h1.9c0-2.99-.54-5.48-1.63-7.46-.21-.39-.61-.96-1.21-1.74C.59,2.12,.2,1.53-.02,1.09H3.16c.62,.57,1.25,1.52,1.91,2.83,1.12,2.23,1.68,4.94,1.68,8.13h10.34v1.88Z" fill="#ffffff"/>
  <path class="cls-1" d="M32.2,13.93h-10.43v2.52s.08,.02,.12,.06c.04,.04,.08,.06,.11,.06-.08,0-.13,0-.14-.02,0-.05,.78-.22,2.33-.5,.57-.1,1.14-.16,1.71-.16,2.35,0,3.86,.66,4.53,1.97,.45,.88,.67,2.65,.67,5.31v6.03c-.22-.08-1.05-.42-2.49-1.02,0-.33-.07-.55-.2-.64-.55,.32-1.01,.57-1.36,.74-1.13,.53-2.44,.8-3.93,.8-2.06,0-3.65-.65-4.76-1.94-.54-.63-.81-1.33-.81-2.1,0-.87,.43-1.73,1.28-2.58,1.66-1.66,3.72-2.49,6.19-2.49,1.49,0,2.69,.34,3.6,1.03v-1.44c-.46-.58-.91-.98-1.34-1.17-.43-.2-1.03-.29-1.78-.27-1.68,.03-3.22,.34-4.62,.92-.63,.26-1.24,.5-1.83,.71v-1.16c.14-.12,.33-.29,.6-.52,.04-.05,.07-.08,.08-.09v-4.05h-3.21v-1.88h15.7v1.88Zm-3.59,9.93c0-.46-.55-.87-1.65-1.24-.91-.3-1.67-.45-2.27-.45-2.2,0-3.97,.79-5.29,2.38-.53,.64-.8,1.16-.8,1.57,.22,.76,1.08,1.14,2.58,1.14,1.94,0,3.72-.49,5.33-1.46,1.4-.85,2.1-1.49,2.1-1.94Z" fill="#ffffff"/>
  <path class="cls-1" d="M49.31,13.93h-11.91v5.86c.87-1.07,1.9-2,3.1-2.79,.81-.53,1.63-.8,2.44-.8,1.65,0,3.04,.63,4.17,1.9,1.03,1.16,1.55,2.42,1.55,3.78,0,1.57-.76,3.16-2.27,4.77-1.51,1.61-3.05,2.42-4.61,2.42-.79,0-1.63-.35-2.51-1.07-.27-.22-.94-.87-2.01-1.96v3.21l-2.73-1.18V13.93h-2.57v-1.88h2.57c0-2.48-.69-4.92-2.08-7.31-1.1-1.89-2.15-3.27-3.15-4.15h3.43c1.03,.88,1.94,1.99,2.71,3.33,1.29,2.26,1.94,4.97,1.94,8.12h11.91v1.88Zm-2.38,9.56c0-.97-.54-2.02-1.63-3.15-1.21-1.26-2.62-1.9-4.21-1.9-1,0-1.94,.5-2.82,1.49-.34,.4-.52,.69-.52,.89,0,.87,.39,1.87,1.16,3.01,1.63,2.4,3.31,3.6,5.04,3.6,1.1,0,1.95-.71,2.57-2.12,.27-.62,.41-1.23,.41-1.83Z" fill="#ffffff"/>
  <path class="cls-1" d="M64.47,13.93h-10.43v2.52s.08,.02,.12,.06c.04,.04,.08,.06,.11,.06-.08,0-.13,0-.14-.02,0-.05,.78-.22,2.33-.5,.57-.1,1.14-.16,1.71-.16,2.35,0,3.86,.66,4.53,1.97,.45,.88,.67,2.65,.67,5.31v6.03c-.22-.08-1.05-.42-2.49-1.02,0-.33-.07-.55-.2-.64-.55,.32-1.01,.57-1.36,.74-1.13,.53-2.44,.8-3.93,.8-2.06,0-3.65-.65-4.76-1.94-.54-.63-.81-1.33-.81-2.1,0-.87,.43-1.73,1.28-2.58,1.66-1.66,3.72-2.49,6.19-2.49,1.49,0,2.69,.34,3.6,1.03v-1.44c-.46-.58-.91-.98-1.34-1.17-.43-.2-1.03-.29-1.78-.27-1.68,.03-3.22,.34-4.62,.92-.63,.26-1.24,.5-1.83,.71v-1.16c.14-.12,.33-.29,.6-.52,.04-.05,.07-.08,.08-.09v-4.05h-3.21v-1.88h15.7v1.88Zm-3.59,9.93c0-.46-.55-.87-1.65-1.24-.91-.3-1.67-.45-2.27-.45-2.2,0-3.97,.79-5.29,2.38-.53,.64-.8,1.16-.8,1.57,.22,.76,1.08,1.14,2.58,1.14,1.94,0,3.72-.49,5.33-1.46,1.4-.85,2.1-1.49,2.1-1.94Z" fill="#ffffff"/>
  <path class="cls-1" d="M81.58,13.93h-11.91v5.86c.87-1.07,1.9-2,3.1-2.79,.81-.53,1.63-.8,2.44-.8,1.65,0,3.04,.63,4.17,1.9,1.03,1.16,1.55,2.42,1.55,3.78,0,1.57-.76,3.16-2.27,4.77-1.51,1.61-3.05,2.42-4.61,2.42-.79,0-1.63-.35-2.51-1.07-.27-.22-.94-.87-2.01-1.96v3.21l-2.73-1.18V13.93h-2.57v-1.88h2.57c0-2.48-.69-4.92-2.08-7.31-1.1-1.89-2.15-3.27-3.15-4.15h3.43c1.03,.88,1.94,1.99,2.71,3.33,1.29,2.26,1.94,4.97,1.94,8.12h11.91v1.88Zm-2.38,9.56c0-.97-.54-2.02-1.63-3.15-1.21-1.26-2.62-1.9-4.21-1.9-1,0-1.94,.5-2.82,1.49-.34,.4-.52,.69-.52,.89,0,.87,.39,1.87,1.16,3.01,1.63,2.4,3.31,3.6,5.04,3.6,1.1,0,1.95-.71,2.57-2.12,.27-.62,.41-1.23,.41-1.83Z" fill="#ffffff"/>
  <path class="cls-1" d="M105.36,13.93h-10.43v2.52s.08,.02,.12,.06c.04,.04,.08,.06,.11,.06-.08,0-.13,0-.14-.02,0-.05,.78-.22,2.33-.5,.57-.1,1.14-.16,1.71-.16,2.35,0,3.86,.66,4.53,1.97,.45,.88,.67,2.65,.67,5.31v6.03c-.22-.08-1.05-.42-2.49-1.02,0-.33-.07-.55-.2-.64-.55,.32-1.01,.57-1.36,.74-1.13,.53-2.44,.8-3.93,.8-2.06,0-3.65-.65-4.76-1.94-.54-.63-.81-1.33-.81-2.1,0-.87,.43-1.73,1.28-2.58,1.66-1.66,3.72-2.49,6.19-2.49,1.49,0,2.69,.34,3.6,1.03v-1.44c-.46-.58-.91-.98-1.34-1.17-.43-.2-1.03-.29-1.78-.27-1.68,.03-3.22,.34-4.62,.92-.63,.26-1.24,.5-1.83,.71v-1.16c.14-.12,.33-.29,.6-.52,.04-.05,.07-.08,.08-.09v-4.05h-3.21v-1.88h15.7v1.88Zm-3.59,9.93c0-.46-.55-.87-1.65-1.24-.91-.3-1.67-.45-2.27-.45-2.2,0-3.97,.79-5.29,2.38-.53,.64-.8,1.16-.8,1.57,.22,.76,1.08,1.14,2.58,1.14,1.94,0,3.72-.49,5.33-1.46,1.4-.85,2.1-1.49,2.1-1.94Z" fill="#ffffff"/>
  <path class="cls-1" d="M121.96,13.93h-16.84v-1.88h16.84v1.88Zm-3.37,6.89c0-2.51-1.19-3.76-3.56-3.76-1.75,0-3.22,.92-4.4,2.76-1.04,1.63-1.57,3.36-1.57,5.2v4.56l-2.57-1.35v-11.78h2.69v1.86l1.39-1.05c1.23-.93,2.53-1.39,3.9-1.39,1.86,0,3.4,.72,4.62,2.16,1.15,1.36,1.72,2.98,1.72,4.87,0,2.37-1,4.65-3.01,6.83l-3.02-1.9c.94-.93,1.74-1.79,2.4-2.57,.93-1.11,1.39-2.59,1.39-4.45Z" fill="#ffffff"/>
  <path class="cls-1" d="M139.76,13.93h-2.08v15.32l-2.85-1.22v-2.24c-1.69,2.18-3.35,3.27-4.98,3.27-1.03,0-2.16-.43-3.38-1.3-1.04-.74-1.91-1.61-2.6-2.6-.82-1.17-1.22-2.31-1.21-3.42,.01-1.01,.57-2.19,1.68-3.52,1.24-1.5,2.74-2.26,4.5-2.26,1.12,0,2.24,.48,3.37,1.43,.34,.28,1.22,1.19,2.63,2.73v-6.19h-13.41v-1.88h13.41c0-2.16-.18-3.85-.55-5.07-.54-1.81-1.75-3.97-3.63-6.48-.04-.02-.06-.1-.06-.25,0-.12,.03-.21,.09-.25h2.99c2.69,2.97,4.04,6.99,4.04,12.05h2.05v1.88Zm-5.69,7.14c0-.81-.44-1.51-1.33-2.1-.79-.52-1.62-.78-2.48-.78-.63,0-1.41,.29-2.35,.88-2.05,1.27-3.07,2.78-3.07,4.51,0,.95,.26,1.78,.77,2.47,.56,.78,1.3,1.17,2.21,1.17s1.94-.43,3.01-1.28c.74-.6,1.43-1.33,2.07-2.19,.78-1.07,1.17-1.96,1.17-2.68Z" fill="#ffffff"/>
  <path class="cls-1" d="M162.72,13.93h-10.28v4.06c.62-.35,1.62-.82,3.02-1.39,.57-.16,1.27-.23,2.08-.23,1.12,0,2.11,.31,2.99,.92,.98,.68,1.47,1.56,1.47,2.63,0,1.45-.83,2.51-2.49,3.16-.69,.27-1.28,.41-1.78,.41l3.62,4.43-1.98,1.44-5.59-6.64,1.03-2.15c.55,.16,1.13,.24,1.74,.24,.89,0,1.61-.21,2.18-.63,.64-.46,.96-1.12,.96-1.97s-.59-1.25-1.78-1.25c-.83,0-1.72,.4-2.65,1.21-.67,.58-1.27,1.27-1.82,2.09-.67,.98-1,1.83-1,2.53v6.58l-2.73-1.21V13.93h-1.99v-1.88h1.9c0-2.99-.54-5.48-1.63-7.46-.21-.39-.61-.96-1.21-1.74-.56-.74-.96-1.33-1.18-1.77h3.18c.62,.57,1.25,1.52,1.91,2.83,1.12,2.23,1.68,4.94,1.68,8.13h10.34v1.88Z" fill="#ffffff"/>
  <path class="cls-1" d="M180.08,13.93h-13.11v10.05c0,.67,.14,1.36,.42,2.07,.57,1.45,1.52,2.18,2.85,2.18,1.79,0,3.14-.75,4.07-2.24,.72-1.15,1.08-2.23,1.08-3.24v-6.23h3.18v13.35c-.25-.15-.71-.37-1.4-.67l-1.78-.8v-1.25c-1.24,.9-2.29,1.47-3.17,1.71-.53,.15-1.17,.22-1.9,.22-2.32,0-4.14-1.02-5.45-3.06-.6-.93-.9-1.94-.9-3.04V13.93h-1.9v-1.88h18v1.88Z" fill="#ffffff"/>
  <path class="cls-1" d="M195.62,13.93h-15.84v-1.88h15.84v1.88Zm-1.3,5.64c0,.62-.37,1.31-1.11,2.08-.63,.66-1.29,1.15-1.97,1.47l-2.35-2.66c.71-.06,1.38-.32,2.02-.78,.73-.52,1.1-1.12,1.1-1.79,0-.35-.23-.66-.69-.91-.4-.23-.79-.34-1.17-.34-.8,0-1.67,.39-2.58,1.16-1.87,1.57-2.8,3.3-2.8,5.2v6.64l-3.01-1.57v-11.59h3.01v1.19c.45-.45,1.38-.92,2.8-1.41,.69-.24,1.4-.36,2.14-.36,1.52,0,2.81,.58,3.87,1.74,.51,.56,.77,1.21,.77,1.93Z" fill="#ffffff"/>
  <path class="cls-1" d="M211.02,13.93h-15.84v-1.88h15.84v1.88Zm-1.3,5.64c0,.62-.37,1.31-1.11,2.08-.63,.66-1.29,1.15-1.97,1.47l-2.35-2.66c.71-.06,1.38-.32,2.02-.78,.73-.52,1.1-1.12,1.1-1.79,0-.35-.23-.66-.69-.91-.4-.23-.79-.34-1.17-.34-.8,0-1.67,.39-2.58,1.16-1.87,1.57-2.8,3.3-2.8,5.2v6.64l-3.01-1.57v-11.59h3.01v1.19c.45-.45,1.38-.92,2.8-1.41,.69-.24,1.4-.36,2.14-.36,1.52,0,2.81,.58,3.87,1.74,.51,.56,.77,1.21,.77,1.93Z" fill="#ffffff"/>
  <path class="cls-1" d="M228.75,12.05l-.03,1.88h-13.19v9.25c0,1.36,.23,2.35,.7,2.96,.53,.68,1.46,1.05,2.79,1.11,.85,.04,1.69-.23,2.54-.83,.75-.52,1.37-1.19,1.86-1.99,.53-.88,.8-1.73,.8-2.57v-5.91l3.24,1.13v16.04c0,1.95-.9,3.54-2.69,4.78-1.66,1.14-3.61,1.71-5.84,1.71-3.78,0-6.47-1.03-8.07-3.09-.65-.84-.97-1.55-.97-2.15,.01-1.31,.74-2.4,2.19-3.29,1.28-.78,2.62-1.17,3.99-1.17l1.99,2.66c-1.8,.13-3.4,.51-4.82,1.14-.93,.42-1.39,.96-1.39,1.61,.11,.95,.83,1.79,2.15,2.52,.78,.44,1.8,.66,3.04,.66,2.85,0,5-.92,6.45-2.77,.69-.88,1.03-1.9,1.03-3.07v-6.38c-.68,1.11-2.49,1.66-5.44,1.66-2.48,0-4.35-.85-5.62-2.54-.63-.83-.94-1.77-.94-2.82V13.93h-2.22v-1.88h18.45Z" fill="#ffffff"/>
</svg>